# xmcd
#
# Track frame offsets: 
#        150
#        20472
#        33728
#        53835
#        69129
#        85266
#        96589
#        117249
#        127895
#        140363
#        161221
#        170808
#        193881
#        207898
#        237751
#        255788
#        276041
#        294275
#
# Disc length: 4106 seconds
#
# Revision: 1
# Processed by: cddbd v1.5.2PL0 Copyright (c) Steve Scherf et al.
# Submitted via: ExactAudioCopy v0.90b4
#
DISCID=00100812
DTITLE=Miki Nervio and the Bluesmakers - Autentic Rial Strit Blus
DYEAR=1999
DGENRE=Blues
TTITLE0=Ain't gonna Nobody none of my jelly roll
TTITLE1=Last fair deal go down
TTITLE2=Pterodáctil Blues
TTITLE3=Ain't she sweet
TTITLE4=All by myself
TTITLE5=Ain't gonna drink whisky no more
TTITLE6=Madeline caeu no pozo negro
TTITLE7=Waitin' for Robert C. Lee
TTITLE8=Quit me baby
TTITLE9=When you're smiling
TTITLE10=Bottleneck blues
TTITLE11=Improvisación en Re
TTITLE12=Sweet life boogie
TTITLE13=St. James Infirmary
TTITLE14=Country
TTITLE15=Homenaxe a Mike Bloonfield
TTITLE16=Feelin' good
TTITLE17=You may leave but this will bring you back
EXTD=
EXTT0=
EXTT1=
EXTT2=
EXTT3=
EXTT4=
EXTT5=
EXTT6=
EXTT7=
EXTT8=
EXTT9=
EXTT10=
EXTT11=
EXTT12=
EXTT13=
EXTT14=
EXTT15=
EXTT16=
EXTT17=
PLAYORDER=
